<svg width="94" height="94" viewBox="0 0 7.52 7.52" data-name="Layer 1" id="Layer_1" xmlns="http://www.w3.org/2000/svg"><defs><style>.cls-4{fill:#bc6c25}.cls-5{fill:#a3cef1}.cls-6{fill:#dda15e}.cls-7{fill:#6096ba}.cls-8{fill:#274c77}</style></defs><path class="cls-6" d="m3.006 4.705-.352.152a.47.47 0 0 1-.37 0l-.352-.152a.47.47 0 0 1-.284-.432v-.631c0-.389.316-.705.705-.705h.235c.389 0 .705.316.705.705v.63a.47.47 0 0 1-.284.432Z"/><path class="cls-8" d="M4.011 5.405a1.18 1.18 0 0 0-.839-.352H2.82a.351.351 0 1 1-.704 0h-.352A1.175 1.175 0 0 0 .587 6.228v.823h2.585l.47-1.645z"/><path class="cls-6" d="M1.88 6.58h.235c.129 0 .235.106.235.235v.235h-.47z"/><path class="cls-8" d="M1.292 3.846a.233.233 0 0 1-.352-.203.236.236 0 0 1 .369-.193m2.333.396a.233.233 0 0 0 .352-.203.236.236 0 0 0-.369-.193"/><path class="cls-4" d="m2.115 4.783.167.072a.46.46 0 0 0 .371 0l.167-.072v.269a.351.351 0 1 1-.704 0z"/><path d="m3.172 7.05.47-1.645h2.586L5.757 7.05" style="fill:#8b8c89"/><path class="cls-8" d="M3.219 3.335a.6.6 0 0 0-.242-.045c-.509 0-.509.47-1.019.47a.6.6 0 0 1-.313-.079v-.039c0-.389.316-.705.705-.705h.235a.7.7 0 0 1 .633.397z"/><path d="M3.29 4.183v-.541a.705.705 0 0 0-.705-.705H2.35a.705.705 0 0 0-.705.705v.47H1.41a.117.117 0 0 1-.117-.117v-.352a1.175 1.175 0 0 1 2.349-.001v.374c0 .056-.04.105-.094.115z" style="fill:#e7ecef"/><path class="cls-5" d="M4.7 6.11a.117.117 0 0 1 0 .234z"/><path class="cls-7" d="M2.467 4.348a.12.12 0 0 1 .092-.139l.966-.193V3.68c0-.563-.424-1.055-.985-1.093a1.06 1.06 0 0 0-1.13 1.055v.352h.235v.235H1.41a.236.236 0 0 1-.235-.235v-.315c0-.672.498-1.262 1.168-1.324A1.294 1.294 0 0 1 3.76 3.642v.374a.235.235 0 0 1-.189.23l-.966.193a.12.12 0 0 1-.139-.092Zm0 2.702h-.235v-.235a.117.117 0 0 0-.117-.117h-.823a.117.117 0 0 1-.117-.117v-.47a.12.12 0 0 1 .034-.083l.152-.153a.117.117 0 1 1 .166.166l-.117.117v.304h.705c.195 0 .352.157.352.352z"/><path class="cls-5" d="M.352 6.932h5.876v.235H.352zm6.815-4.817a1.76 1.76 0 0 1-1.762 1.762 1.76 1.76 0 0 1-1.763-1.762 1.762 1.762 0 0 1 3.525 0"/><path class="cls-7" d="M5.287 4.112h.235v.236h-.235zm-.352.47h.235v.235h-.235zm-.47.235H4.7v.235h-.235z"/><path class="cls-6" d="M4.112 1.997h.823l-.073.293a.23.23 0 0 1-.228.177h-.522"/><path class="cls-4" d="M4.582 1.997h-.235V1.88a.117.117 0 0 1 .234 0z"/><path class="cls-7" d="M3.995 1.88h.235v.705h-.235z"/><path class="cls-6" d="M6.697 2.467h-.823l.073-.293a.23.23 0 0 1 .228-.177h.522"/><path class="cls-4" d="M6.345 2.702a.117.117 0 0 1-.117-.117v-.117h.235v.117a.117.117 0 0 1-.117.117"/><path class="cls-7" d="M6.58 1.88h.235v.705H6.58z"/><path d="M5.631.823a.233.233 0 0 1-.452 0 .47.47 0 0 0-.244.41c0 .26.47.587.47.587s.47-.328.47-.587a.47.47 0 0 0-.244-.41" style="fill:#f76c5e"/><path class="cls-7" d="M5.64 3.29h-.118v.235L5.17 3.29h-.235v-.47h.705z"/></svg>