<svg version="1.1" id="Layer_1" xmlns="http://www.w3.org/2000/svg" xmlns:xlink="http://www.w3.org/1999/xlink" viewBox="0 0 94 94" xml:space="preserve" width="94" height="94"><path style="fill:#71CCCE;" points="0,25.319 0,92.835 340.396,115.341 329.143,25.319 " d="M0 4.648L0 17.044L62.495 21.176L60.429 4.648Z"/><path style="fill:#41BBBE;" points="512,25.319 329.143,25.319 329.143,115.341 512,92.835 " d="M94 4.648L60.429 4.648L60.429 21.176L94 17.044Z"/><path y="92.835" style="fill:#D0EEEF;" width="512" height="393.846" d="M0 17.044H94V89.352H0V17.044z"/><path style="fill:#F76720;" cx="420.853" cy="59.077" r="8.44" d="M78.816 10.846A1.55 1.55 0 0 1 77.266 12.396A1.55 1.55 0 0 1 75.716 10.846A1.55 1.55 0 0 1 78.816 10.846z"/><path style="fill:#D0EEEF;" cx="374.716" cy="59.077" r="8.44" d="M70.345 10.846A1.55 1.55 0 0 1 68.796 12.396A1.55 1.55 0 0 1 67.246 10.846A1.55 1.55 0 0 1 70.345 10.846z"/><path style="fill:#D92622;" cx="466.989" cy="59.077" r="8.44" d="M87.286 10.846A1.55 1.55 0 0 1 85.736 12.396A1.55 1.55 0 0 1 84.187 10.846A1.55 1.55 0 0 1 87.286 10.846z"/><path style="fill:#20AAB0;" d="M72.429 56.762v-8.264h-7.706a18.102 18.102 0 0 0 -2.275 -5.473l5.455 -5.455 -5.843 -5.843 -5.455 5.455a18.084 18.084 0 0 0 -5.473 -2.275V27.201h-8.264v7.706a18.102 18.102 0 0 0 -5.473 2.275l-5.455 -5.455 -5.843 5.843 5.455 5.455a18.084 18.084 0 0 0 -2.275 5.473h-7.706v8.264h7.706a18.102 18.102 0 0 0 2.275 5.473l-5.455 5.455 5.843 5.843 5.455 -5.455a18.084 18.084 0 0 0 5.473 2.275v7.706h8.264v-7.706a18.102 18.102 0 0 0 5.473 -2.275l5.455 5.455 5.843 -5.843 -5.455 -5.455a18.084 18.084 0 0 0 2.275 -5.473zM47 62.547c-5.477 0 -9.916 -4.44 -9.916 -9.916s4.44 -9.916 9.916 -9.916 9.916 4.44 9.916 9.916c0 5.477 -4.44 9.916 -9.916 9.916"/></svg>