<svg width="96px" height="96px" viewBox="0 0 2.88 2.88" fill="none" xmlns="http://www.w3.org/2000/svg"><path fill-rule="evenodd" clip-rule="evenodd" d="M0.966 1.304a0.12 0.12 0 1 0 -0.117 -0.21l-0.426 0.24a0.12 0.12 0 0 0 0.006 0.212l0.249 0.125 -0.255 0.143a0.12 0.12 0 0 0 0.006 0.212l0.96 0.48a0.12 0.12 0 0 0 0.107 0l0.96 -0.48a0.12 0.12 0 0 0 0.006 -0.212l-0.255 -0.143 0.249 -0.125a0.12 0.12 0 0 0 0.006 -0.212l-0.426 -0.24a0.12 0.12 0 1 0 -0.117 0.21l0.23 0.129 -0.706 0.353 -0.704 -0.352zm0.979 0.497 -0.451 0.225a0.12 0.12 0 0 1 -0.107 0l-0.451 -0.225 -0.199 0.112 0.704 0.354 0.704 -0.352z" fill="#152C70"/><path d="M1.494 0.373a0.12 0.12 0 0 0 -0.107 0l-0.96 0.48a0.12 0.12 0 0 0 0 0.214l0.96 0.48a0.12 0.12 0 0 0 0.107 0l0.96 -0.48a0.12 0.12 0 0 0 0 -0.214z" fill="#4296FF"/></svg>