<svg version="1.1" id="Layer_1" xmlns="http://www.w3.org/2000/svg" xmlns:xlink="http://www.w3.org/1999/xlink" viewBox="0 0 94 94" xml:space="preserve" width="94" height="94"><path y="57.332" width="512" height="397.336" d="M0 10.526H94V83.474H0V10.526z"/><path style="fill:#E21B1B;" cx="44.192" cy="89.38" r="8.928" d="M9.753 16.41A1.639 1.639 0 0 1 8.113 18.049A1.639 1.639 0 0 1 6.474 16.41A1.639 1.639 0 0 1 9.753 16.41z"/><g style="opacity:0.7;"><path style="fill:#FFFFFF;" cx="70.968" cy="89.38" r="8.928" d="M14.668 16.41A1.639 1.639 0 0 1 13.029 18.049A1.639 1.639 0 0 1 11.39 16.41A1.639 1.639 0 0 1 14.668 16.41z"/></g><g><path style="fill:#666666;" cx="97.736" cy="89.38" r="8.928" d="M19.583 16.41A1.639 1.639 0 0 1 17.944 18.049A1.639 1.639 0 0 1 16.305 16.41A1.639 1.639 0 0 1 19.583 16.41z"/><path style="fill:#666666;" points="443.52,105.06 155.96,105.06 175.08,73.716 462.656,73.716 	" d="M81.427 19.288L28.633 19.288L32.144 13.534L84.941 13.534Z"/></g><g><path style="fill:#FFFFFF;" d="m35.837 15.127 0.341 1.309c0.075 0.286 0.147 0.552 0.192 0.818h0.018c0.057 -0.26 0.147 -0.536 0.228 -0.812l0.422 -1.315h0.394l0.398 1.287c0.095 0.307 0.17 0.58 0.229 0.84h0.016q0.077 -0.423 0.198 -0.834l0.369 -1.292h0.463l-0.83 2.573h-0.424l-0.394 -1.228c-0.09 -0.294 -0.165 -0.542 -0.229 -0.847h-0.01a7.527 7.527 0 0 1 -0.235 0.852l-0.416 1.223h-0.424l-0.776 -2.573z"/><path style="fill:#FFFFFF;" d="m39.813 15.127 0.341 1.309c0.075 0.286 0.147 0.552 0.192 0.818h0.016c0.059 -0.26 0.147 -0.536 0.229 -0.812l0.419 -1.315h0.394l0.4 1.287c0.095 0.307 0.17 0.58 0.228 0.84h0.018a7.344 7.344 0 0 1 0.198 -0.834l0.369 -1.292h0.463l-0.83 2.573h-0.427l-0.394 -1.228a8.078 8.078 0 0 1 -0.228 -0.847h-0.012a7.16 7.16 0 0 1 -0.234 0.852l-0.416 1.223h-0.427l-0.777 -2.573z"/><path style="fill:#FFFFFF;" d="m43.785 15.127 0.341 1.309c0.075 0.286 0.147 0.552 0.192 0.818h0.016c0.059 -0.26 0.147 -0.536 0.229 -0.812l0.419 -1.315h0.394l0.4 1.287c0.095 0.307 0.17 0.58 0.228 0.84h0.018a7.344 7.344 0 0 1 0.198 -0.834l0.369 -1.292h0.463l-0.83 2.573h-0.427l-0.395 -1.228a8.078 8.078 0 0 1 -0.228 -0.847h-0.012a7.16 7.16 0 0 1 -0.234 0.852l-0.416 1.223h-0.427l-0.777 -2.573z"/></g><g><path style="fill:#666666;" points="0,423.58 82.856,423.58 113.944,454.66 0,454.66 	" d="M0 77.767L15.212 77.767L20.919 83.473L0 83.473Z"/><path style="fill:#666666;" points="512,423.58 429.144,423.58 398.056,454.66 512,454.66 	" d="M94 77.767L78.788 77.767L73.081 83.473L94 83.473Z"/></g><g style="opacity:0.2;"><path x="95.2" y="162.18" style="fill:#FFFFFF;" width="29.232" height="29.232" d="M17.478 29.775H22.845V35.142H17.478V29.775z"/></g><g style="opacity:0.2;"><path x="153.68" y="162.18" style="fill:#FFFFFF;" width="29.232" height="29.232" d="M28.215 29.775H33.581V35.142H28.215V29.775z"/></g><g style="opacity:0.2;"><path x="270.616" y="162.18" style="fill:#FFFFFF;" width="29.232" height="29.232" d="M49.683 29.775H55.05V35.142H49.683V29.775z"/></g><g style="opacity:0.2;"><path x="329.12" y="162.18" style="fill:#FFFFFF;" width="29.232" height="29.232" d="M60.424 29.775H65.791V35.142H60.424V29.775z"/></g><g style="opacity:0.2;"><path x="446.032" y="162.18" style="fill:#FFFFFF;" width="29.232" height="29.232" d="M81.889 29.775H87.255V35.142H81.889V29.775z"/></g><g style="opacity:0.2;"><path x="36.728" y="220.652" style="fill:#FFFFFF;" width="29.232" height="29.232" d="M6.743 40.51H12.11V45.877H6.743V40.51z"/></g><g style="opacity:0.2;"><path x="95.2" y="220.652" style="fill:#FFFFFF;" width="29.232" height="29.232" d="M17.478 40.51H22.845V45.877H17.478V40.51z"/></g><g style="opacity:0.2;"><path x="212.144" y="220.652" style="fill:#FFFFFF;" width="29.232" height="29.232" d="M38.948 40.51H44.315V45.877H38.948V40.51z"/></g><g style="opacity:0.2;"><path x="329.12" y="220.652" style="fill:#FFFFFF;" width="29.232" height="29.232" d="M60.424 40.51H65.791V45.877H60.424V40.51z"/></g><g style="opacity:0.2;"><path x="387.6" y="220.652" style="fill:#FFFFFF;" width="29.232" height="29.232" d="M71.161 40.51H76.528V45.877H71.161V40.51z"/></g><g style="opacity:0.2;"><path x="446.032" y="220.652" style="fill:#FFFFFF;" width="29.232" height="29.232" d="M81.889 40.51H87.255V45.877H81.889V40.51z"/></g><g style="opacity:0.2;"><path x="36.728" y="279.116" style="fill:#FFFFFF;" width="29.232" height="29.232" d="M6.743 51.244H12.11V56.611H6.743V51.244z"/></g><g style="opacity:0.2;"><path x="153.68" y="279.116" style="fill:#FFFFFF;" width="29.232" height="29.232" d="M28.215 51.244H33.581V56.611H28.215V51.244z"/></g><g style="opacity:0.2;"><path x="212.144" y="279.116" style="fill:#FFFFFF;" width="29.232" height="29.232" d="M38.948 51.244H44.315V56.611H38.948V51.244z"/></g><g style="opacity:0.2;"><path x="270.616" y="279.116" style="fill:#FFFFFF;" width="29.232" height="29.232" d="M49.683 51.244H55.05V56.611H49.683V51.244z"/></g><g style="opacity:0.2;"><path style="fill:#FFFFFF;" points="329.088,279.116 358.328,279.116 358.328,308.348 329.088,308.348 	" d="M60.419 51.244L65.787 51.244L65.787 56.611L60.419 56.611"/></g><g style="opacity:0.2;"><path x="387.6" y="279.116" style="fill:#FFFFFF;" width="29.232" height="29.232" d="M71.161 51.244H76.528V56.611H71.161V51.244z"/></g><g style="opacity:0.2;"><path x="446.032" y="279.116" style="fill:#FFFFFF;" width="29.232" height="29.232" d="M81.889 51.244H87.255V56.611H81.889V51.244z"/></g><g style="opacity:0.2;"><path x="36.728" y="337.596" style="fill:#FFFFFF;" width="29.232" height="29.232" d="M6.743 61.981H12.11V67.347H6.743V61.981z"/></g><g style="opacity:0.2;"><path x="95.2" y="337.596" style="fill:#FFFFFF;" width="29.232" height="29.232" d="M17.478 61.981H22.845V67.347H17.478V61.981z"/></g><g style="opacity:0.2;"><path x="212.144" y="337.596" style="fill:#FFFFFF;" width="29.232" height="29.232" d="M38.948 61.981H44.315V67.347H38.948V61.981z"/></g><g style="opacity:0.2;"><path x="270.616" y="337.596" style="fill:#FFFFFF;" width="29.232" height="29.232" d="M49.683 61.981H55.05V67.347H49.683V61.981z"/></g><g style="opacity:0.2;"><path x="329.12" y="337.596" style="fill:#FFFFFF;" width="29.232" height="29.232" d="M60.424 61.981H65.791V67.347H60.424V61.981z"/></g><g style="opacity:0.2;"><path x="446.032" y="337.596" style="fill:#FFFFFF;" width="29.232" height="29.232" d="M81.889 61.981H87.255V67.347H81.889V61.981z"/></g><g><path style="fill:#FFFFFF;" d="m14.945 47.684 21.901 -10.174v4.837l-16.563 7.254v0.091l16.563 7.254v4.837L14.945 51.608z"/><path style="fill:#FFFFFF;" d="m40.226 63.608 9.764 -33.081h4.609L44.835 63.608z"/><path style="fill:#FFFFFF;" d="m79.149 51.743 -21.901 10.039v-4.837L74.172 49.691v-0.091l-16.923 -7.256v-4.834l21.901 10.039z"/></g></svg>